<?xml version="1.0" encoding="UTF-8" standalone="no"?>
<svg
   fill="#000000"
   height="24"
   viewBox="0 0 24 24"
   width="24"
   version="1.1"
   id="svg2"
   sodipodi:docname="search.svg"
   inkscape:version="1.4 (86a8ad7, 2024-10-11)"
   xmlns:inkscape="http://www.inkscape.org/namespaces/inkscape"
   xmlns:sodipodi="http://sodipodi.sourceforge.net/DTD/sodipodi-0.dtd"
   xmlns="http://www.w3.org/2000/svg"
   xmlns:svg="http://www.w3.org/2000/svg">
  <defs
     id="defs2" />
  <sodipodi:namedview
     id="namedview2"
     pagecolor="#ffffff"
     bordercolor="#000000"
     borderopacity="0.25"
     inkscape:showpageshadow="2"
     inkscape:pageopacity="0.0"
     inkscape:pagecheckerboard="0"
     inkscape:deskcolor="#d1d1d1"
     showguides="true"
     inkscape:zoom="48.958333"
     inkscape:cx="12"
     inkscape:cy="12"
     inkscape:window-width="2560"
     inkscape:window-height="1377"
     inkscape:window-x="-8"
     inkscape:window-y="-8"
     inkscape:window-maximized="1"
     inkscape:current-layer="svg2">
    <sodipodi:guide
       position="9.4774468,23.652766"
       orientation="1,0"
       id="guide2"
       inkscape:locked="false" />
    <sodipodi:guide
       position="7.2919149,14.542979"
       orientation="0,-1"
       id="guide3"
       inkscape:locked="false" />
  </sodipodi:namedview>
  <path
     d="M 15.826809,13.979574 14.71,14 14.43,13.73 C 15.41,12.59 16,11.11 16,9.5 16,5.91 13.09,3 9.5,3 5.91,3 3,5.91 3,9.5 3,13.09 5.91,16 9.5,16 c 1.61,0 3.09,-0.59 4.23,-1.57 l 0.27,0.28 -0.0817,1.178085 4.897872,4.887872 1.980213,-1.89851 z M 9.4591489,13.244255 c -2.2244681,0 -3.7851063,-1.581064 -3.7851063,-3.8055316 0,-2.3061702 1.6831914,-3.7851064 3.8055319,-3.7851064 2.2040425,0 3.8055315,1.7644888 3.8055315,3.8259575 0,2.2852875 -1.683191,3.7646805 -3.8259571,3.7646805 z"
     id="path1"
     sodipodi:nodetypes="cccssssccccccsssss" />
  <path
     d="M 0,0 H 24 V 24 H 0 Z"
     fill="none"
     id="path2"
     sodipodi:nodetypes="ccccc" />
</svg>
